Coordinates
version=1
nRows=13
nColumns=36
inDegrees=yes

Units are S.I. units (second, meters, Newtons, ...)
If the header above contains a line with 'inDegrees', this indicates whether rotational values are in degrees (yes) or radians (no).

endheader
time	pelvis_tilt	pelvis_list	pelvis_rotation	pelvis_tx	pelvis_ty	pelvis_tz	hip_flexion_r	hip_adduction_r	hip_rotation_r	knee_angle_r	knee_angle_r_beta	ankle_angle_r	subtalar_angle_r	mtp_angle_r	hip_flexion_l	hip_adduction_l	hip_rotation_l	knee_angle_l	knee_angle_l_beta	ankle_angle_l	subtalar_angle_l	mtp_angle_l	lumbar_extension	lumbar_bending	lumbar_rotation	arm_flex_r	arm_add_r	arm_rot_r	elbow_flex_r	pro_sup_r	arm_flex_l	arm_add_l	arm_rot_l	elbow_flex_l	pro_sup_l
      3.48333330	    -14.13891285	     -0.41697439	     -0.61037226	     -0.37876172	      1.32596285	     -0.07091246	     19.78262420	     -0.26028529	     -2.87908739	     49.78296793	      0.86887670	     -0.28432623	    -12.12313830	     -7.49999987	     16.42253380	     -4.63358343	     -5.52002219	     43.72169369	      0.76308751	     -5.42510544	     -8.92178925	     -7.49999987	    -11.03902816	      3.74179225	     -1.83503640	     57.37033278	    -56.75689413	      3.58177426	    118.19589358	     87.85923866	     50.41900106	    -85.68496092	    -16.62110042	    106.07474338	     81.11537138
      3.48750000	    -13.87711231	     -0.36735832	     -0.20708715	     -0.37089618	      1.32731450	     -0.07220477	     19.65527294	     -0.70008008	     -3.58362179	     49.33868375	      0.86112248	     -2.15809023	    -13.49520304	     -7.49999987	     16.23782251	     -4.39535336	     -5.39874800	     43.10707648	      0.75236042	     -4.82581039	     -9.12719879	     -7.49999987	    -11.54390833	      3.68513010	     -1.28069423	     53.87725838	    -58.32916253	     -0.13207928	    119.09350863	     85.70685281	     48.83312022	    -84.73104644	    -18.53547781	    105.94114469	     79.10488974
      3.49166670	    -13.63344471	     -0.22258240	     -0.00911018	     -0.36534874	      1.32694588	     -0.07334099	     19.83179858	     -1.16679782	     -3.91479563	     49.59169475	      0.86553835	     -2.68183256	    -14.54050785	     -7.49999987	     16.29602665	     -4.14678801	     -5.31529747	     42.79832850	      0.74697175	     -4.87400796	     -9.60981571	     -7.49999987	    -11.69146454	      3.58819921	     -1.38730898	     53.59998631	    -58.92685810	      0.34783370	    118.79820687	     83.34562453	     48.35888160	    -84.61299979	    -18.93280981	    105.50526252	     77.20985866
      3.49583330	    -13.63825094	     -0.12520212	      0.11358349	     -0.35943142	      1.32552581	     -0.07317329	     20.31932916	     -1.40284767	     -4.10111055	     50.05828368	      0.87368187	     -1.91258122	    -14.39368633	     -7.49999987	     16.87772927	     -4.10953052	     -5.31167606	     43.02192594	      0.75087426	     -4.92470427	     -9.82953251	     -7.49999987	    -11.62515891	      3.54199552	     -1.06181803	     51.85222244	    -59.83703450	     -1.84075281	    119.35383273	     84.47104292	     46.06837749	    -84.07250893	    -21.43343209	    105.39999075	     77.91689828
      3.50000000	    -13.50362853	      0.05539342	      0.28023041	     -0.35590476	      1.32933617	     -0.07239541	     20.53951281	     -1.66179782	     -4.25667359	     50.06136987	      0.87373573	     -1.75918527	    -14.85814270	     -7.49999987	     17.15497668	     -3.99377664	     -5.24789194	     42.72754156	      0.74573628	     -4.44063776	    -10.07297863	     -7.49999987	    -11.74875765	      3.38811241	     -1.21903153	     51.68840358	    -60.05611289	     -1.70960756	    119.07707984	     84.53395730	     46.11229806	    -84.08070554	    -21.64152628	    105.17736913	     77.94574980
      3.50416670	    -13.56627420	      0.03891405	      0.40270612	     -0.34841497	      1.32829409	     -0.07236077	     20.99698843	     -1.66332524	     -4.19887010	     49.89550754	      0.87084089	     -1.54423209	    -14.02524367	     -7.49999987	     17.59119305	     -4.08450481	     -5.30537519	     42.46518295	      0.74115726	     -4.11139663	    -10.28553833	     -7.49999987	    -11.97580694	      4.19306694	     -7.60017813	     61.86506884	    -52.70316549	      9.56735374	    115.04442416	     88.07000081	    -53.46724232	    -80.52074610	   -122.41370785	    107.48785136	     75.55256110
      3.50833330	    -13.77048154	      0.02740927	      0.49380627	     -0.34506631	      1.32593570	     -0.07235305	     22.07372017	     -1.69252396	     -4.04982641	     50.13974466	      0.87510363	     -1.77873081	    -13.89093135	     -7.49999987	     18.41113001	     -4.06165454	     -5.40134940	     42.36532321	      0.73941438	     -3.30946948	    -10.73937516	     -7.49999987	    -11.67098057	      4.21488611	     -7.69745199	     62.01516828	    -53.22199571	     10.16348282	    114.64705823	     84.76486483	    -52.72565957	    -80.69739017	   -122.00924362	    107.32008272	     73.70637177
      3.51250000	    -13.84954480	      0.06094183	      0.63460786	     -0.33966163	      1.33070203	     -0.07257819	     22.45929309	     -1.78266655	     -4.00305057	     49.14256372	      0.85769954	     -1.66236447	    -12.86367077	     -7.49999987	     18.89455529	     -4.03785772	     -5.37351606	     41.62208773	      0.72644247	     -2.74859614	    -10.61356715	     -7.49999987	    -11.80804264	      3.91945400	     -7.26410899	     59.96350797	    -54.17573358	      8.07863891	    114.99690911	     86.56178902	    -53.69174107	    -81.29092904	   -122.76679981	    107.11380017	     74.70944680
      3.51666670	    -13.83375664	     -0.04527372	      0.88239145	     -0.33176493	      1.33152332	     -0.07149119	     22.39203147	     -1.62377414	     -4.10104454	     48.08778564	      0.83929019	     -1.62682246	    -11.01031840	     -7.49999987	     18.96430138	     -4.24673779	     -5.50520132	     40.58122759	      0.70827604	     -2.87804964	    -10.50896012	     -7.49999987	    -11.65818805	      4.06631783	     -7.62250801	     59.75374795	    -54.29194463	      8.69175414	    114.67547022	     83.98591628	    -53.34121940	    -80.77024114	   -122.09761310	    107.15859019	     73.26039740
      3.52083330	    -13.73017748	      0.04153492	      0.85088827	     -0.32746430	      1.33267179	     -0.07111397	     22.31686269	     -1.74263500	     -4.22562070	     47.00285655	      0.82035460	     -1.25772526	     -9.93831868	     -7.49999987	     18.94972513	     -4.21824646	     -5.64371453	     39.84810074	      0.69548056	     -2.69002711	     -9.95801306	     -7.49999987	    -11.65838124	      3.95915565	     -7.70592582	     59.51065805	    -54.20066933	      8.77707022	    114.27607169	     84.31605543	    -53.74116076	    -80.50889222	   -121.79275937	    106.81457815	     73.42102196
      3.52500000	    -13.68446701	      0.11928644	      0.74582546	     -0.32243582	      1.33080495	     -0.07057331	     22.56192652	     -1.79760134	     -4.32640348	     46.54874427	      0.81242885	     -1.22932782	     -9.27816649	     -7.49999987	     19.29929865	     -4.23061923	     -5.65484636	     39.38802532	      0.68745073	     -2.88482339	     -9.59013325	     -7.49999987	    -11.55575795	      3.87129140	     -7.78473028	     59.73541430	    -54.05601032	      9.31693968	    113.69470457	     82.51081290	    -53.39786176	    -80.14021431	   -121.03879367	    106.46825952	     72.36164575
      3.52916670	    -13.80660636	      0.20270219	      0.60319340	     -0.31696739	      1.32689518	     -0.06995016	     23.25077301	     -1.92772393	     -4.38532171	     46.70863026	      0.81521939	     -1.55024805	     -8.47684126	     -7.49999987	     19.74337146	     -4.26933464	     -5.71333570	     39.10495509	      0.68251022	     -2.55171727	     -8.80202223	     -7.49999987	    -11.13391901	      3.69862637	     -7.72134531	     59.76907267	    -54.19208760	      9.23441575	    113.01622364	     86.92393959	    -54.32240244	    -80.39931678	   -121.88938172	    105.52076701	     74.57870092
      3.53333330	    -13.78150086	      0.16149970	      0.60288462	     -0.31154823	      1.33087069	     -0.06937526	     23.46060519	     -1.92669439	     -4.51730193	     45.90509727	      0.80119509	     -1.74864768	     -7.70817989	     -7.49999987	     19.91402544	     -4.40615280	     -5.48124569	     37.92823608	      0.66197260	     -2.51726586	     -8.08004943	     -7.49999987	    -10.97795384	      3.73891844	     -7.84818612	     59.73660329	    -54.04281384	      9.77897075	    112.51118249	     84.40567469	    -53.94895101	    -79.98094784	   -121.14772322	    105.08142288	     73.15871779
